<svg xmlns="http://www.w3.org/2000/svg" xmlns:xlink="http://www.w3.org/1999/xlink" width="2550.0" height="3300.0" viewBox="0 0 2550.0 3300.0">
  <!-- Generated from: Corporate Logo Design -->
  <defs />
  <g id="layer-95ae98e7-45a8-4014-9178-34a52deeb58a" data-name="Layer 1" />
  <g id="layer-3f685970-e827-475a-a1b4-fa106a3f26d3" data-name="Background">
    <rect x="0" y="0" width="2550.0" height="3300.0" fill="rgb(245,245,245)" stroke="none" id="Background" />
    <circle cx="0" cy="0" r="300.0" fill="rgb(25,118,210)" fill-opacity="0.1" stroke="none" transform="translate(-150.0,-150.0)" id="Corner_TL" />
    <circle cx="0" cy="0" r="400.0" fill="rgb(25,118,210)" fill-opacity="0.1" stroke="none" transform="translate(2350.0,3100.0)" id="Corner_BR" />
  </g>
  <g id="layer-0796833d-cdd6-431a-b2f8-11656da53353" data-name="Icon">
    <circle cx="0" cy="0" r="150.0" fill="rgb(25,118,210)" stroke="none" transform="translate(1275.0,800.0)" id="Main_Circle" />
    <circle cx="0" cy="0" r="60.0" fill="rgb(255,152,0)" stroke="none" transform="translate(1235.0,760.0)" id="Accent_Circle" />
    <polygon points="0.0,0.0 60.0,0.0 30.0,-52.0" fill="rgb(255,255,255)" fill-opacity="0.9" stroke="none" transform="translate(1305.0,820.0)" id="Triangle_1" />
    <polygon points="0.0,0.0 60.0,0.0 30.0,52.0" fill="rgb(66,165,245)" fill-opacity="0.8" stroke="none" transform="translate(1305.0,880.0)" id="Triangle_2" />
  </g>
  <g id="layer-ef55dc35-e359-4257-90e7-53bfe15afb4e" data-name="Company Text">
    <rect x="0" y="0" width="60.0" height="8.0" fill="none" stroke="rgb(66,66,66)" stroke-width="8.0" transform="translate(1175.0,1000.0)" id="T_Horizontal" />
    <rect x="0" y="0" width="8.0" height="80.0" fill="none" stroke="rgb(66,66,66)" stroke-width="8.0" transform="translate(1201.0,1000.0)" id="T_Vertical" />
    <rect x="0" y="0" width="8.0" height="80.0" fill="none" stroke="rgb(66,66,66)" stroke-width="8.0" transform="translate(1255.0,1000.0)" id="E_Vertical" />
    <rect x="0" y="0" width="52.0" height="8.0" fill="none" stroke="rgb(66,66,66)" stroke-width="8.0" transform="translate(1263.0,1000.0)" id="E_Top" />
    <rect x="0" y="0" width="37.0" height="8.0" fill="none" stroke="rgb(66,66,66)" stroke-width="8.0" transform="translate(1263.0,1040.0)" id="E_Middle" />
    <rect x="0" y="0" width="52.0" height="8.0" fill="none" stroke="rgb(66,66,66)" stroke-width="8.0" transform="translate(1263.0,1072.0)" id="E_Bottom" />
    <rect x="0" y="0" width="200.0" height="4.0" fill="rgb(255,152,0)" stroke="none" transform="translate(1175.0,1100.0)" id="Accent_Line" />
  </g>
  <g id="layer-976aaa32-cd48-4884-990d-192a9aacd67b" data-name="Tagline">
    <line x1="0.0" y1="0.0" x2="12.0" y2="0.0" fill="none" stroke="rgb(66,165,245)" stroke-width="3.0" transform="translate(1125.0,1140.0)" id="Tagline_Word_1_Char_1" />
    <line x1="0.0" y1="0.0" x2="12.0" y2="0.0" fill="none" stroke="rgb(66,165,245)" stroke-width="3.0" transform="translate(1140.0,1140.0)" id="Tagline_Word_1_Char_2" />
    <line x1="0.0" y1="0.0" x2="12.0" y2="0.0" fill="none" stroke="rgb(66,165,245)" stroke-width="3.0" transform="translate(1155.0,1140.0)" id="Tagline_Word_1_Char_3" />
    <line x1="0.0" y1="0.0" x2="12.0" y2="0.0" fill="none" stroke="rgb(66,165,245)" stroke-width="3.0" transform="translate(1170.0,1140.0)" id="Tagline_Word_1_Char_4" />
    <line x1="0.0" y1="0.0" x2="12.0" y2="0.0" fill="none" stroke="rgb(66,165,245)" stroke-width="3.0" transform="translate(1185.0,1140.0)" id="Tagline_Word_1_Char_5" />
    <line x1="0.0" y1="0.0" x2="12.0" y2="0.0" fill="none" stroke="rgb(66,165,245)" stroke-width="3.0" transform="translate(1200.0,1140.0)" id="Tagline_Word_1_Char_6" />
    <line x1="0.0" y1="0.0" x2="12.0" y2="0.0" fill="none" stroke="rgb(66,165,245)" stroke-width="3.0" transform="translate(1215.0,1140.0)" id="Tagline_Word_1_Char_7" />
    <line x1="0.0" y1="0.0" x2="12.0" y2="0.0" fill="none" stroke="rgb(66,165,245)" stroke-width="3.0" transform="translate(1230.0,1140.0)" id="Tagline_Word_1_Char_8" />
    <line x1="0.0" y1="0.0" x2="12.0" y2="0.0" fill="none" stroke="rgb(66,165,245)" stroke-width="3.0" transform="translate(1245.0,1145.0)" id="Tagline_Word_2_Char_1" />
    <line x1="0.0" y1="0.0" x2="12.0" y2="0.0" fill="none" stroke="rgb(66,165,245)" stroke-width="3.0" transform="translate(1260.0,1145.0)" id="Tagline_Word_2_Char_2" />
    <line x1="0.0" y1="0.0" x2="12.0" y2="0.0" fill="none" stroke="rgb(66,165,245)" stroke-width="3.0" transform="translate(1275.0,1145.0)" id="Tagline_Word_2_Char_3" />
    <line x1="0.0" y1="0.0" x2="12.0" y2="0.0" fill="none" stroke="rgb(66,165,245)" stroke-width="3.0" transform="translate(1290.0,1145.0)" id="Tagline_Word_2_Char_4" />
    <line x1="0.0" y1="0.0" x2="12.0" y2="0.0" fill="none" stroke="rgb(66,165,245)" stroke-width="3.0" transform="translate(1305.0,1145.0)" id="Tagline_Word_2_Char_5" />
    <line x1="0.0" y1="0.0" x2="12.0" y2="0.0" fill="none" stroke="rgb(66,165,245)" stroke-width="3.0" transform="translate(1320.0,1145.0)" id="Tagline_Word_2_Char_6" />
    <line x1="0.0" y1="0.0" x2="12.0" y2="0.0" fill="none" stroke="rgb(66,165,245)" stroke-width="3.0" transform="translate(1335.0,1145.0)" id="Tagline_Word_2_Char_7" />
    <line x1="0.0" y1="0.0" x2="12.0" y2="0.0" fill="none" stroke="rgb(66,165,245)" stroke-width="3.0" transform="translate(1350.0,1145.0)" id="Tagline_Word_2_Char_8" />
    <line x1="0.0" y1="0.0" x2="12.0" y2="0.0" fill="none" stroke="rgb(66,165,245)" stroke-width="3.0" transform="translate(1365.0,1140.0)" id="Tagline_Word_3_Char_1" />
    <line x1="0.0" y1="0.0" x2="12.0" y2="0.0" fill="none" stroke="rgb(66,165,245)" stroke-width="3.0" transform="translate(1380.0,1140.0)" id="Tagline_Word_3_Char_2" />
    <line x1="0.0" y1="0.0" x2="12.0" y2="0.0" fill="none" stroke="rgb(66,165,245)" stroke-width="3.0" transform="translate(1395.0,1140.0)" id="Tagline_Word_3_Char_3" />
    <line x1="0.0" y1="0.0" x2="12.0" y2="0.0" fill="none" stroke="rgb(66,165,245)" stroke-width="3.0" transform="translate(1410.0,1140.0)" id="Tagline_Word_3_Char_4" />
    <line x1="0.0" y1="0.0" x2="12.0" y2="0.0" fill="none" stroke="rgb(66,165,245)" stroke-width="3.0" transform="translate(1425.0,1140.0)" id="Tagline_Word_3_Char_5" />
    <line x1="0.0" y1="0.0" x2="12.0" y2="0.0" fill="none" stroke="rgb(66,165,245)" stroke-width="3.0" transform="translate(1440.0,1140.0)" id="Tagline_Word_3_Char_6" />
    <line x1="0.0" y1="0.0" x2="12.0" y2="0.0" fill="none" stroke="rgb(66,165,245)" stroke-width="3.0" transform="translate(1455.0,1140.0)" id="Tagline_Word_3_Char_7" />
    <line x1="0.0" y1="0.0" x2="12.0" y2="0.0" fill="none" stroke="rgb(66,165,245)" stroke-width="3.0" transform="translate(1470.0,1140.0)" id="Tagline_Word_3_Char_8" />
  </g>
</svg>
